<?xml version="1.0" encoding="UTF-8"?>
<svg xmlns="http://www.w3.org/2000/svg" viewBox="0 0 1000 1000">  <defs>
    <style>
      .st0 {
        fill: #1ba09b;
      }

      .st1 {
        fill: #b2d7d1;
      }

      .st2 {
        fill: #b2d7d1;
      }

      .st3 {
        fill: #ffffff;
      }

      .st4 {
        fill: #1ba09b;
      }

      .st5 {
        fill: #ffffff;
      }

      .st6 {
        fill: #1ba09b;
      }

      .st7 {
        fill: #ffffff;
      }

      .st8 {
        fill: #1ba09b;
      }

      .st9 {
        fill: #1ba09b;
      }

      .st10 {
        fill: #ffffff;
      }

      .st11 {
        fill: #1ba09b;
      }

      .st12 {
        fill: #1ba09b;
      }

      .st13 {
        fill: #0f3c59;
      }

      .st14 {
        fill: #ffffff;
      }
    </style>
  </defs>
  <path class="st13" d="M489.72,1000c-125.57-2.42-246.63-56.95-333.25-150.46-65.36-70.56-107.76-159.14-122.69-255.23.11-1.82,1-6.1,2.84-5.82,28.55,4.21,40.38-8.44,41.62-.57,18.5,117.72,85.67,225.7,182.65,291.13,14.95,10.09,29.55,18.33,46.61,23.24,49.68,14.29,93.06-10.45,111.53-60.22,17.4-46.9,17.29-98.84,1.67-146.4-6.6-20.09-14.49-38.71-26.54-55.89-16.92-24.11-40.89-41.12-67.57-52.6l-53.6-20.48c-34.02-13-63.25-33.56-86.81-61.85-7.73-9.28-14.67-18.43-21-28.85-.53-.87-1.67-1.1-2.15-1.08-2.18-3.38-2.4-6.03-.67-7.95,9.38-4.91,16.75-12.62,19.92-23.07,1.92-2.18,2.99-1.39,3.21,2.38l2.29,2.34c13.89,44.71,54.79,76.1,98.52,87.13l40.19,11.07c46.08,11.44,84.46,35.63,114.58,73.47-1.21-63.33-19.13-130.81-60.25-178.71-25.91,4.92-48.92-17.13-50.12-43.42-1.35-1.31-2.24-2.74-2.66-4.31.15-1.67,1.33-2.18,3.55-1.53,2-8.02,5.14-15.61,9.41-22.78l2.31-.76c8.38-10.54,21.62-15.27,35.72-14.29,13.6.94,26.02,8.97,32.27,21.64,6.02,12.21,5.83,25.55,2.12,38.56,22.61,31.25,40.94,64.14,54.22,100.37,12.98,37.28,19.13,76.06,21.89,115.71l.2,369.22"/>
  <path class="st9" d="M512.25,999.1l-.34-348.05c-.03-36.18,1.74-71.45,9.29-106.52,11.79-54.73,39.67-103.3,81.18-139.44,4.41-3.84,8.75-3.09,13.85-.65l15.97,7.63c-36.52,52.12-74.05,110.83-74.56,175.37l-.28,34.91,22.88-23.86c33.48-31.84,75.79-50.57,120.8-57.48l23.88-3.58c-1.75,9.74.29,18.37,4.8,27.23-4.52-.8-8.09,1.7-12.28,3.35-20.9,8.25-40.97,16.52-61.05,26.62-28.77,14.46-51.27,36.77-65.22,66.66-27.82,59.59-30.38,130.18-5.87,191.13,14.72,36.6,49.02,56.47,86.88,54.05,16.09-1.03,30.74-5.57,45.38-13.3,23.41-12.35,44.83-28.28,64.73-46,75.23-67.01,125.11-158.43,141.41-259.37,1.02-1.35,3.56-2.75,5.22-2.12,12.81,4.86,25.45,4.45,39.71,2.25-17.33,122.9-80.86,235.11-175.61,310.19-73.65,58.36-164.56,95.05-257.32,101.02"/>
  <path class="st1" d="M925.01,447.73c-16.42-97.04-61.16-189.85-130.33-256.29-62.26-60.56-139.22-100.16-225.01-114.52,4.33-14.7,5.84-28.36,2.74-44.01,101.88,15.39,195.53,65.19,266.67,140.67,69.09,73.95,114.4,167.15,128.59,270.05-14.58-1.36-27.35-.49-42.67,4.1h.01Z"/>
  <path class="st11" d="M78.62,439.56c-.62,3.8-1.36,5.91-3.11,8.27-11.11-3.85-21.78-5.54-33.46-4.69-2.77.2-5.55.18-8.21-1.18,11.07-74.48,38.28-145.59,80.15-207.37C186.93,127.45,299.3,54.04,426.2,33.49c-1.6,15.54-1.15,29.49,3.72,43.96-37.33,7.3-72.82,17.35-106.66,33.47-129.19,61.01-220.91,184.4-244.64,328.64Z"/>
  <path class="st13" d="M52.95,567.51c-10.38.92-20.88-1.67-29.24-6.47-17.57-10.08-24.63-27.36-23.62-47.36,1.14-22.55,17.9-42.77,39.98-46.44,16.45-2.73,31.83,1.46,43.29,12.87,11.25,11.2,15.8,26.23,14.34,43.38-2,23.59-20.9,41.9-44.76,44.02h.01Z"/>
  <path class="st9" d="M999.93,521c-1.03,22.41-16.55,39.25-35.83,44.9-20.9,6.13-42.24-3.53-53.4-21.1-11.88-18.7-9.99-42.98,3.8-59.54,14.2-17.06,35.68-23.01,55.72-14.56,19.23,8.11,30.76,27.4,29.71,50.3h0Z"/>
  <path class="st1" d="M547.9,53c-.73,18.16-11.04,32.92-24.68,40.61-16.2,9.12-33.35,8.12-49.16-1.11-22.63-13.22-29.41-42.83-17.29-66.24,9.26-17.89,26.75-27.54,46.51-26.12,26.8,1.93,45.77,24.67,44.63,52.87h-.01Z"/>
  <path class="st12" d="M415.39,230.34c13.93-23.19,28.65-43.3,39.9-67.79-17.81,19.58-29.52,42.23-44.87,64.55-6.46-62.95,18.43-100.44,78.87-113.54,7.98,57.98-16.99,101.68-73.9,116.78Z"/>
  <path class="st6" d="M363.93,285.42c-2.26-6.54-3.31-13.11-7.85-18.22,4.3,24.62,12.3,46.42,18.33,70.98-17.4-8.61-29.7-22.52-38.79-39.07-13.98-25.45-9-61.99,3.84-87.84,11.87,5.51,20.24,13.68,28.94,22.69,26.6,27.55,31.21,68.84,14,104.99l-18.47-53.55v.02Z"/>
  <path class="st13" d="M351.6,624.53c-28.35,46.3-77.7,53.9-123.09,27.24,15.04-24.21,41.8-45.69,69.5-47.3,18.11-1.05,36.25,2.73,52.12,12.52l-36.61,10.79-33.26,10.49c.13.41.09.95.02,1.32l71.32-15.04v-.02Z"/>
  <path class="st8" d="M519.56,416.03c12.92-20.88,27.31-37.84,37.47-58.97-13.63,15.35-24.94,31.41-36.39,47.9-1.89,2.73-3.06,5.45-6.41,6.31-2.87-47.79,25.36-87.89,70.71-101.01,6.36,30.24,2.47,61.67-20.21,82.4-12.53,11.01-27.64,19.83-45.18,23.38h0Z"/>
  <path class="st0" d="M658.59,650.55c-7.66-7-21.86-23.05-18.25-25.24,2.25-1.37,37.93,15.04,51.35,15.79l-50.06-22.72c16.78-6.85,34.67-7.34,51.13-3.5,17.94,4.19,38.33,24.88,47.11,42.65-26.27,15.13-58.79,13.57-81.27-6.97h0Z"/>
  <path class="st2" d="M693.41,531.66c-9.15,4.88-19.45,7.66-29.16,7.15-3.99-.21-4.93-5.08-4.92-8.08l.05-67.15c.01-14.75,27.95-12.08,30.68-9.87,1.58,1.28,3.76,4.07,3.75,7.21l-.39,70.75h-.01Z"/>
  <path class="st2" d="M641.78,525.85c.04,8.53-16.17,22.41-24.76,19.12-12.85-4.92-9.04-32.64-7.04-48.82,4.13-5.67,9.85-7.53,16.58-7.59,5.68-2.05,15.06-.13,15.09,7l.13,30.29h0Z"/>
  <path class="st2" d="M729.73,564.68c-4.4-1.64-5.98-9.31-6.72-14.02-.45-2.89-1.04-8.62-.22-11.22l2.14-2c.52-2.92,2.9-5.83,2.05-9.15l-17.7,3.1.1-115.77c7.19-5.13,15.59-5.02,23.45-3.35,6.18,1.31,10.07,5.52,10.05,12.23l-.22,85.76,14.87-4.63c1.34-.42,2.97-.24,3.8-1.22.61-.73,1.36-2.24,1.37-3.9l.47-121.42c.02-4.4,1.31-8.94,3.74-11.47,4.47-4.65,18.99-6.13,23.66-3.43,2.52,1.45,5.84,4.84,5.82,9.05l-.31,60.11c-.11,20.8-1.76,40.88-6.6,61.1-1.35,5.64-5.39,9.93-5.52,16.31l38.04-48.05c1.16-.67,4.76-4.03,3.61-5.47-18.9-23.49-11.8-53.34,10.78-61.82l-.08.5c-13.94-43.57-29.47-78.92-53.14-104.61-.19-.93.94-.4-.23-.05-11.45,3.39-22.55,2.26-33.52-3.16l-58.75,63.99c8.96,22.87.39,47.69-21.11,57.65-16.33,7.57-36.04,3.17-49.03-8.43-4.81-4.3-5.04-7.75-6.73-13.1-7.54-23.92,1.91-48.85,25.08-58.46l-13.3-122.53c-7.97-.86-14.14-4.58-21.56-8.23l-86.48,63.34c5.41,23.15-6.25,45.02-27.89,53.1v221.9c-.97-1.14-2.18-3.09-2.83-4.83l-14.57-39.08c-5.6-16.39-12.7-31.16-21.47-46.11l-.34-74.18.1-65.64c-18.66-17.22-19.78-47.14-1.37-64.38,15.47-14.5,38.56-15.32,55.34-2.13,9.73-7.83,19.69-14.21,30.09-21.22l53.81-36.25c3.61-2.43,1.95-11.54-2.2-12.77-23.11-6.84-46.17-9.05-70.44-11.38l9.01-40.02c27.19,2.81,51.76,7,78.99,12.76,10.56-9.06,24.78-12.01,37.83-7.85,13.06,4.16,23.16,14.85,26.85,28.47l2.9,11.43c28.2,15.83,55.78,31.42,82.06,50.15,16.36-7.04,32.69-5.35,44.96,6.81,12.49,13.68,16.07,20.65,11.61,43.13,13.45,14.91,23.56,34.58,35.72,56.89,7.57,14.73,24.45,59.93,24.58,76.52-3.24-5.15-1.69-5.34.43-.35,10.81,6.87,16.44,9.16,20.54,23.4,4.73,16.44-.7,31.04-13.12,41.73,8.46,82.13-1.41,159.09-37.03,232.53-28.42,58.58-70.83,107.76-123.56,144.27-24.08,16.47-48.96,31.04-76.11,41.68-14.75-3.99-26.02-14.13-33.84-26.73-.16-1.34-.23-3.13.16-3.85.46-.87,1.73-1.76,3.21-2.27,60.1-20.54,119.95-63.26,158.59-114.88,20.03-26.77,37.13-55.2,48.66-87.04,15.92-43.94,24.34-90.3,22.32-136.95-.52-12.1-.22-23.05-1.77-34.76-3.86,1.5-5.39,4.34-7.6,7.11-10.86,13.61-20.78,27.39-33.7,39.3,3.44,8.34,6.06,15.56,5.99,23.68-.17,18.86-12.21,34.37-29.01,38.87-17.14,4.6-36.57-2.8-44.68-18.72h-.03ZM726.99,240.79l-66.62-42.52-14.6,10.93,5.31,40.64,9.19,77.28,16.74,4.83,52.48-58.37c-4.16-11.04-4.92-21.5-2.49-32.8h-.01Z"/>
  <path class="st10" d="M668.37,374.34c-2.52,9.31-10.71,14.2-19.1,12.61s-13.89-8.73-13.06-17.68c.76-8.24,7.15-15.52,15.87-15.62,5.27-.06,10.06,1.71,13.23,5.52,3.08,3.71,4.59,9.51,3.06,15.17Z"/>
  <path class="st5" d="M470.06,289.46c-8.2-4.68-10.81-13.97-7.46-21.95,3.2-7.64,11.92-12.12,20.03-9.27,9.28,3.27,13.02,13.2,9.9,22.39-2.92,8.6-13.84,13.74-22.46,8.82h-.01Z"/>
  <path class="st5" d="M644.67,158.29c2.99,9.87-2.35,19.96-10.73,22.33-9.54,2.7-18.57-3.1-20.38-12.54-1.83-9.56,3.99-18.82,13.94-19.82,7.24-.73,14.87,2.44,17.16,10.03h.01Z"/>
  <path class="st3" d="M765.65,236.79c8.66-3.16,17.86.59,20.38,9.22,2.3,7.88-1.12,17.13-9.39,20.24-7.57,2.85-16.72-.5-19.69-9.3-2.51-7.46-.14-16.92,8.7-20.15h0Z"/>
  <path class="st5" d="M765.11,560.36c-8.78.76-14.96-6.05-16.09-13.41-1.21-7.91,3.56-15.82,11.46-17.77,8.57-2.11,16.54,4.24,18.25,12.65,1.71,8.4-4.12,17.71-13.62,18.54h0Z"/>
  <path class="st10" d="M849.87,416.64c8.91-2.58,16.82,2.55,18.99,10.35,2.31,8.29-2.38,17.03-10.44,19.59-7.56,2.4-16.09-2-18.67-10.15-2.32-7.35,1.86-17.4,10.11-19.79h.01Z"/>
  <path class="st10" d="M384.46,384.71c6.72,6.54,7.57,17.41,1.31,23.83-6.25,6.42-17.19,7.16-23.39.05-5.92-6.79-5.53-17.34,1.43-23.82,6.01-5.6,14.37-6.19,20.65-.07h0Z"/>
  <path class="st4" d="M402.14,172.47c4.48-10.14,7.32-20.46,8.75-31.37.02-2.6-.39-4.98-2.01-6.27-7.9-6.29-51.9,12.45-67.15,19.49-28.37,13.09-53.92,30.35-78.92,49.34-15.28-4.93-30.77-1.19-41.88,9.65-10.93,10.65-15.14,26.58-11.13,42.86-29.19,35.81-51.6,76.11-66.26,120.23l-5.83,16.11c-14.76,3.97-24.78,15.37-28.17,29.53-3.73,15.56,1.66,31.21,13.57,41.25l-1.94,27.5c-4.5,63.9,6.06,127.16,30.87,186.1,39.6,94.08,115.15,166.76,208.66,203.43,14.2-6,26.48-16.7,33.86-31.33-47.39-15.23-88.8-40.36-125.02-73.69-46.04-42.37-85.98-109.32-97.95-172.95,23.3,6.53,46.18,2.03,64.26-12.43,2.58-2.06,4.77-3.52,4.67-7.41-14.69,1.53-31.7,3.32-44.65,1.44l47.84-6.26c-19.72-26.32-51.22-21.53-74.39-2.13-1.02.86-2.3,1.3-3.08.79-4.24-2.78-6.48-56.11-4.62-71.86.36-10.25.08-19.81,1.41-29.58.56-.52,1.5-1.5,1.15-2.16-.56-1.04-1.21-2.09-1.81-3.75,10.81-5.49,18.69-13.73,21.72-25.3.73,1.58.8,2.51,1.4,2.58l2.05-1.82c1.25-6.16,1.68-12.3,1.27-18.42,25.04-24.8,63.43-56.38,100.02-45.76l37.98,15.08,1.23-1.51,5.44.53c.29-9.86,6.31-17.02,9.82-25.59l-45.09-16.24c-8.26-3.11-15.77-9.64-18.3-18.48-4.92-17.15-7.67-34.34-11.16-52.13,16.13-10.27,24.21-27.37,21.04-46.79,24.84-21,52.29-37.66,81.78-50.17l30.57-12.51ZM246.3,357.07h-.01c-17.84,9.06-34.24,18.85-50.22,30.59-4.91,3.61-10.42,5.97-16.45,5.51,9.94-36.17,33.28-77.65,55.89-105.68,1.15-1.43,2.04-2.96,3.73-2.4,1.33.44,2.51,2.25,2.86,4.01,3.41,17.44,6.8,34.26,11.5,51.48,1.77,6.47-.77,13.18-7.3,16.49Z"/>
  <path class="st7" d="M244.47,227.34c9.33-2.75,17.91,2.58,20.34,11.45,2.38,8.67-2.51,18.07-11.54,20.58-8.06,2.24-17.11-2.01-19.59-10.7-2.47-8.65,1.27-18.53,10.79-21.34h0Z"/>
  <path class="st10" d="M142.72,416.44c8.76-2.54,16.53,2.68,18.93,10.57,2.45,8.07-2.3,16.99-10.39,19.48-7.46,2.3-15.88-2.4-18.55-10.18-2.65-7.71,1.38-17.37,10.02-19.88h0Z"/>
  <path class="st14" d="M68.2,518.36c-2.12,10.86-8.88,17.48-18.55,17.78-8.76.27-17.12-6.59-18.84-16.6s7.46-22.29,18.37-21.97,18.55,10.58,19.02,20.79h0Z"/>
  <path class="st14" d="M969.1,524.55c-5.69,11.76-18.12,15.57-27.89,8.89-9.47-6.48-11.1-20.9-3.02-29.55,3.76-4.03,7.99-6.92,13.08-6.87,4.93.05,9.77,2.44,13.29,6.41,5.18,5.81,8.09,13.78,4.54,21.12h0Z"/>
  <path class="st14" d="M495.99,30.58c10.85-2.2,20.1,5.64,22.18,15.52,2.24,10.66-4.61,20.82-14.75,22.9-10.21,2.09-20.06-4.64-22.44-14.68s3.81-21.47,15-23.74h.01Z"/>
  <path class="st13" d="M260.94,459.61c4.9,18.66,12.1,35.72,18.98,53.36.33.84.03,4.57-1.05,4.06-16.16-7.76-30.69-19.4-38.64-35.97-11.1-23.12-11.03-49.54-2.23-74.14,25.94,11.62,43.07,27.08,53.02,53.67,5.13,18.71,4.8,38.5-2.43,56.86-9.87-19.93-16.25-39.19-27.65-57.84h0Z"/>
  <path class="st13" d="M350.13,497.98c5.15,12.57,30.36,46.94,28.73,49.85-1.27,2.27-28.29-10.07-36.07-18.24-19.71-17.44-23.81-45.72-21.56-72.75,40.78,9.06,69.58,35.28,65.75,80.32.66,3.01.2,5.82-2.45,6.47-11.33-15.5-20.55-31.62-34.4-45.65Z"/>
</svg>